<svg xmlns="http://www.w3.org/2000/svg" xmlns:xlink="http://www.w3.org/1999/xlink" version="1.1" width="256" height="256" viewBox="0 0 256 256" xml:space="preserve">
<desc>Created with Fabric.js 1.7.22</desc>
<defs>
</defs>
<g transform="translate(128 128) scale(0.72 0.72)" style="">
	<g style="stroke: none; stroke-width: 0; stroke-dasharray: none; stroke-linecap: butt; stroke-linejoin: miter; stroke-miterlimit: 10; fill: none; fill-rule: nonzero; opacity: 1;" transform="translate(-175.05 -175.05000000000004) scale(3.89 3.89)" >
	<path d="M 70.561 87.975 c -0.579 0 -1.161 -0.14 -1.698 -0.422 l -23.548 -12.38 c -0.197 -0.104 -0.432 -0.102 -0.629 -0.001 L 21.138 87.553 c -1.239 0.648 -2.71 0.542 -3.839 -0.279 c -1.13 -0.821 -1.685 -2.187 -1.449 -3.564 l 4.497 -26.219 c 0.038 -0.219 -0.035 -0.443 -0.195 -0.599 L 1.103 38.323 c -1.001 -0.975 -1.354 -2.407 -0.922 -3.736 c 0.432 -1.328 1.558 -2.279 2.941 -2.48 l 26.326 -3.826 c 0.221 -0.032 0.411 -0.17 0.51 -0.37 L 41.732 4.055 c 0.619 -1.253 1.87 -2.031 3.267 -2.031 c 1.397 0 2.65 0.778 3.268 2.031 l 0 0 l 11.773 23.856 c 0.099 0.2 0.29 0.339 0.51 0.37 l 26.326 3.826 c 1.383 0.201 2.51 1.151 2.942 2.48 s 0.078 2.76 -0.922 3.735 l -19.05 18.569 c -0.159 0.155 -0.232 0.38 -0.194 0.598 l 4.497 26.22 c 0.236 1.378 -0.32 2.744 -1.45 3.565 C 72.06 87.739 71.313 87.975 70.561 87.975 z" style="stroke: none; stroke-width: 1; stroke-dasharray: none; stroke-linecap: butt; stroke-linejoin: miter; stroke-miterlimit: 10; fill: rgb(170,170,170); fill-rule: nonzero; opacity: 1;" transform=" matrix(1 0 0 1 0 0) " stroke-linecap="round" />
</g>
</g>
</svg>